Coordinates
version=1
nRows=7
nColumns=40
inDegrees=yes

Units are S.I. units (second, meters, Newtons, ...)
If the header above contains a line with 'inDegrees', this indicates whether rotational values are in degrees (yes) or radians (no).

endheader
time	pelvis_tilt	pelvis_list	pelvis_rotation	pelvis_tx	pelvis_ty	pelvis_tz	hip_flexion_r	hip_adduction_r	hip_rotation_r	knee_angle_r	knee_angle_r_beta	ankle_angle_r	subtalar_angle_r	mtp_angle_r	hip_flexion_l	hip_adduction_l	hip_rotation_l	knee_angle_l	knee_angle_l_beta	ankle_angle_l	subtalar_angle_l	mtp_angle_l	lumbar_extension	lumbar_bending	lumbar_rotation	arm_flex_r	arm_add_r	arm_rot_r	elbow_flex_r	pro_sup_r	wrist_flex_r	wrist_dev_r	arm_flex_l	arm_add_l	arm_rot_l	elbow_flex_l	pro_sup_l	wrist_flex_l	wrist_dev_l
     10.00000000000000000000	     -9.89231535593490640679	     -0.23352284071224635453	   -175.93130619350438337278	      0.27110459744358256229	      0.64430333044216681060	     -0.92300618110277565798	     50.92409363298967406308	    -47.47843586543310578918	     -4.19882019446143761598	     74.80297909541280887424	      1.30555827551544312293	     14.09700004566345477031	      0.00000000000000000000	      0.00000000000000000000	     57.23993805558106373610	    -48.49662171393814702469	     -2.29634008043128501342	     76.47364816678135923667	      1.33471695152206049073	      5.37596052707156157879	      0.00000000000000000000	      0.00000000000000000000	    -65.42120718993525940732	      3.38510506375176101201	     -7.26044940329532639822	     46.08312627940561156947	      3.58398430549736035644	     22.65740157257575404515	      5.18722079913118339078	     19.71566334801687148115	      0.00000000000000000000	      0.00000000000000000000	     50.12550764309438022792	    -10.02948928949530227328	     62.67297828690202265989	      5.86960843325447179097	     76.65375509684506027952	      0.00000000000000000000	      0.00000000000000000000
     10.00500000000000078160	     -9.90322770219255943402	     -0.25724357502868377967	   -175.94105516435854497104	      0.27083203387695370390	      0.64463447968334941507	     -0.92316880328318440263	     50.88449946732296069740	    -47.44628551879867472962	     -4.15477075556432584591	     74.78729051795200177821	      1.30528445818379790211	     14.09105882878034776695	      0.00000000000000000000	      0.00000000000000000000	     57.11939680206780423077	    -48.49464256505878978487	     -2.37299235699506505526	     76.41319412106994946043	      1.33366182937824517829	      5.33795736311268331775	      0.00000000000000000000	      0.00000000000000000000	    -65.44864672819664974668	      3.33779973253689865587	     -7.18719094750276532579	     46.03664626339863730209	      3.54741990288708297641	     22.31474557414171044911	      5.44995550351444535409	     18.97261009512195428783	      0.00000000000000000000	      0.00000000000000000000	     50.21115887046963877083	    -10.00127050487316004990	     63.55507252677606544466	      5.85664563352948785990	     76.98814359448915922712	      0.00000000000000000000	      0.00000000000000000000
     10.00999999999999978684	     -9.92467600681716533018	     -0.32574306465830588087	   -175.97781831121568529852	      0.27058615355313758721	      0.64504324830361725596	     -0.92336119075344402773	     50.87459054573826477963	    -47.41785372702375411791	     -4.03331618025569138553	     74.75425113271907662238	      1.30470781212864861409	     14.12134652804874335175	      0.00000000000000000000	      0.00000000000000000000	     56.89631544501070692377	    -48.48567192795889013723	     -2.57738874213986468575	     76.34611668734373779444	      1.33249110730593445240	      5.35458055808438260215	      0.00000000000000000000	      0.00000000000000000000	    -65.50396529722893035341	      3.24855366549357071904	     -7.27319259777685100943	     46.11496506326680133725	      3.59514126475683326589	     21.90101044833302168513	      5.27746390505489326728	     19.94796730508139859239	      0.00000000000000000000	      0.00000000000000000000	     50.12926114508670139003	    -10.21514711597212610172	     63.88555070826456017130	      6.21819730460595732069	     75.15052763346702136005	      0.00000000000000000000	      0.00000000000000000000
     10.01500000000000056843	     -9.80324841886062436913	     -0.39755466289249163925	   -176.00697493450471142751	      0.27033735386198576300	      0.64517225372802555761	     -0.92361653092101592133	     51.06845570426688141197	    -47.36693769973521739303	     -3.82114801434196849073	     74.75537865408377058429	      1.30472749108884911173	     14.15159819247200445602	      0.00000000000000000000	      0.00000000000000000000	     56.85794906795337766425	    -48.43087389581045698606	     -2.68979106160980308005	     76.27633564586611214509	      1.33127319837667923430	      5.31699741274997883522	      0.00000000000000000000	      0.00000000000000000000	    -65.39811683267481612347	      3.18931626835100923145	     -7.49703738084107484951	     46.28247683967405379235	      3.95038845104682234677	     21.29097613231100538655	      4.89193725745827201479	     20.89839553697860452530	      0.00000000000000000000	      0.00000000000000000000	     49.99364778606106796133	    -10.37432969217318934341	     63.62749844392383380409	      6.29742885249514738888	     73.58166706152238134564	      0.00000000000000000000	      0.00000000000000000000
     10.01999999999999957367	     -9.82883717010856905461	     -0.24290927058216396639	   -175.86992549617536951700	      0.27011944283139788237	      0.64564909631048794658	     -0.92338019120377901050	     50.64908115540932698195	    -47.35234719236549238985	     -4.25657870097451418445	     74.66078847416994790365	      1.30307658100929901757	     14.16574667548176158505	      0.00000000000000000000	      0.00000000000000000000	     57.01221212513998892746	    -48.39229341585592436559	     -2.35965288587499699702	     76.21480840450442428846	      1.33019934543524853687	      5.24076846344789792909	      0.00000000000000000000	      0.00000000000000000000	    -65.44987018454769156506	      3.38248998225294439379	     -7.14187067941104558599	     46.11816796018430864024	      3.50082179225814860146	     21.48361641761644591497	      5.02559389515902132928	     21.56925157453551378239	      0.00000000000000000000	      0.00000000000000000000	     50.18811698879330407408	    -10.00640956754364196968	     64.60226660224465433657	      5.97305877625329983971	     74.08897539749540328557	      0.00000000000000000000	      0.00000000000000000000
     10.02500000000000035527	     -9.75461849621368237706	     -0.28853512036020750875	   -175.90250180911203869982	      0.26979686997334950682	      0.64596507854297069429	     -0.92356445565875955328	     50.74317885068806077697	    -47.30636043958111969232	     -4.13682876510386776658	     74.63526340579919349238	      1.30263108452443265861	     14.16862972513241025752	      0.00000000000000000000	      0.00000000000000000000	     56.91836417241465539973	    -48.38150004632534972870	     -2.50615454545042437573	     76.14725036327891416477	      1.32902023517966538790	      5.23410978800303272607	      0.00000000000000000000	      0.00000000000000000000	    -65.41920936063165470387	      3.34056770863283247763	     -7.34882171311215426357	     45.98330504716522426634	      3.61814736739479991812	     22.99001650866466661682	      5.63733445388551501765	     18.07695156181769391424	      0.00000000000000000000	      0.00000000000000000000	     50.22017406905418823726	    -10.10256893177307269127	     62.69259853315077890556	      5.82565120697009053430	     77.81829439077858978635	      0.00000000000000000000	      0.00000000000000000000
     10.02999999999999936051	     -9.73874509659120768390	     -0.24882526622207498668	   -175.79673582020518551872	      0.26955517728970929126	      0.64643410626067698832	     -0.92348145342672083302	     50.52635638294839992568	    -47.32889309806399324998	     -4.34240379085445749041	     74.55273535051335898061	      1.30119069823442701228	     14.19152869605444422518	      0.00000000000000000000	      0.00000000000000000000	     56.95578476200314099742	    -48.28267969279146143435	     -2.37923056544192146333	     76.07416103439283006082	      1.32774458574253007015	      5.22835829430972420795	      0.00000000000000000000	      0.00000000000000000000	    -65.42679139777679608869	      3.46818469995317091303	     -7.45267473738670105377	     46.16501309707911815394	      3.78841728238477815083	     22.36183457353502745946	      5.07818778342807508608	     20.62634736966302284600	      0.00000000000000000000	      0.00000000000000000000	     50.07263347501249484139	    -10.15538391025471298690	     62.46871972980135012676	      5.97366743384648479775	     75.40590977286657903278	      0.00000000000000000000	      0.00000000000000000000
